# xmcd
#
# Track frame offsets:
#	150
#	14600
#	33439
#	50686
#	68612
#	87179
#	93388
#	110983
#	130052
#	146299
#	166604
#	171817
#	192878
#	207673
#	225512
#	244898
#
# Disc length: 3611 seconds
#
# Revision: 0
# Processed by: cddbd v1.5.2PL0 Copyright (c) Steve Scherf et al.
# Submitted via: dBpowerAMP V4.0
#
DISCID=d90e1910
DTITLE=Cassidy - Split Personality
DYEAR=2004
DGENRE=Rap
TTITLE0=My Interpretation
TTITLE1=Hotel feat. R.Kelly and Swizz Beatz
TTITLE2=Lipstick feat. Jazze Pha
TTITLE3=Get No Better feat. Mashonda
TTITLE4=Make U Scream feat. Snoop Dogg
TTITLE5=Tha Problem (Skit)
TTITLE6=Tha Problem
TTITLE7=Pop That Cannon feat. Styles P
TTITLE8=Blood Pressure
TTITLE9=Can I Talk To You feat. Jadakiss
TTITLE10=Real Talk (Skit)
TTITLE11=Real Talk
TTITLE12=Husslin'
TTITLE13=I'm Hungry
TTITLE14=Around The World
TTITLE15=Hotel( Vacation Remix) feat. R.Kelly, Swizz Beatz and Trina
EXTD=
EXTT0=
EXTT1=
EXTT2=
EXTT3=
EXTT4=
EXTT5=
EXTT6=
EXTT7=
EXTT8=
EXTT9=
EXTT10=
EXTT11=
EXTT12=
EXTT13=
EXTT14=
EXTT15=
PLAYORDER=
